<svg width="32" height="32" viewBox="0 0 32 32" fill="none" xmlns="http://www.w3.org/2000/svg">
<g id="Cursor/Pointer" clip-path="url(#clip0_16_531)">
<g id="hand" filter="url(#filter0_d_16_531)">
<mask id="path-1-outside-1_16_531" maskUnits="userSpaceOnUse" x="9.72461" y="14" width="16" height="16" fill="black">
<rect fill="white" x="9.72461" y="14" width="16" height="16"/>
<path fill-rule="evenodd" clip-rule="evenodd" d="M14.9999 15.75C14.9999 15.3358 15.3357 15 15.7499 15C16.1641 15 16.4999 15.3358 16.4999 15.75V20.5C16.4999 20.7761 16.7238 21 16.9999 21V21C17.2761 21 17.4999 20.7761 17.4999 20.5V19.75C17.4999 19.3358 17.8357 19 18.2499 19C18.6641 19 18.9999 19.3358 18.9999 19.75V20.5C18.9999 20.7761 19.2238 21 19.4999 21V21C19.7761 21 19.9999 20.7761 19.9999 20.5V20.25C19.9999 19.8358 20.3357 19.5 20.7499 19.5C21.1641 19.5 21.4999 19.8358 21.4999 20.25V20.5C21.4999 20.7761 21.7238 21 21.9999 21H22.25C22.388 21 22.5 20.8881 22.5 20.75V20.75C22.5 20.3358 22.8358 20 23.25 20C23.6642 20 24 20.3358 24 20.75V23.25C24 23.251 24 23.252 24 23.253V24.5C24 26.9853 21.9852 29 19.5 29C17.9532 29 16.5887 28.2196 15.7787 27.031C15.0633 26.2173 13.9485 25.3364 12.9854 24.5754L12.9854 24.5754L12.9852 24.5753C12.6793 24.3336 12.3887 24.104 12.1311 23.8925C11.6522 23.4993 11.5839 22.768 11.9932 22.3027C12.6974 21.5023 13.8991 22.5874 14.6272 23.3661C14.6354 23.3748 14.6435 23.3835 14.6518 23.3924C14.7743 23.5242 15 23.4392 15 23.2592V23.2592L14.9999 23.25V15.75Z"/>
</mask>
<path fill-rule="evenodd" clip-rule="evenodd" d="M14.9999 15.75C14.9999 15.3358 15.3357 15 15.7499 15C16.1641 15 16.4999 15.3358 16.4999 15.75V20.5C16.4999 20.7761 16.7238 21 16.9999 21V21C17.2761 21 17.4999 20.7761 17.4999 20.5V19.75C17.4999 19.3358 17.8357 19 18.2499 19C18.6641 19 18.9999 19.3358 18.9999 19.75V20.5C18.9999 20.7761 19.2238 21 19.4999 21V21C19.7761 21 19.9999 20.7761 19.9999 20.5V20.25C19.9999 19.8358 20.3357 19.5 20.7499 19.5C21.1641 19.5 21.4999 19.8358 21.4999 20.25V20.5C21.4999 20.7761 21.7238 21 21.9999 21H22.25C22.388 21 22.5 20.8881 22.5 20.75V20.75C22.5 20.3358 22.8358 20 23.25 20C23.6642 20 24 20.3358 24 20.75V23.25C24 23.251 24 23.252 24 23.253V24.5C24 26.9853 21.9852 29 19.5 29C17.9532 29 16.5887 28.2196 15.7787 27.031C15.0633 26.2173 13.9485 25.3364 12.9854 24.5754L12.9854 24.5754L12.9852 24.5753C12.6793 24.3336 12.3887 24.104 12.1311 23.8925C11.6522 23.4993 11.5839 22.768 11.9932 22.3027C12.6974 21.5023 13.8991 22.5874 14.6272 23.3661C14.6354 23.3748 14.6435 23.3835 14.6518 23.3924C14.7743 23.5242 15 23.4392 15 23.2592V23.2592L14.9999 23.25V15.75Z" fill="white"/>
<path d="M23.5 20.75V19.75H21.5V20.75H23.5ZM24 23.253L23 23.2491V23.253H24ZM15.7787 27.031L16.6051 26.4679L16.5704 26.417L16.5297 26.3708L15.7787 27.031ZM12.9854 24.5754L13.6054 23.7908L13.5993 23.786L13.5931 23.7813L12.9854 24.5754ZM12.9854 24.5754L12.3646 25.3594L12.3711 25.3645L12.3776 25.3696L12.9854 24.5754ZM12.9852 24.5753L13.6059 23.7913L13.6051 23.7906L12.9852 24.5753ZM12.1311 23.8925L11.4965 24.6653L11.4965 24.6653L12.1311 23.8925ZM11.9932 22.3027L11.2424 21.6422H11.2424L11.9932 22.3027ZM14.6272 23.3661L15.3577 22.6831L15.3577 22.6831L14.6272 23.3661ZM14.9999 23.25H13.9999L13.9999 23.256L14.9999 23.25ZM14.6518 23.3924L13.9194 24.0733L14.6518 23.3924ZM15 23.2592H16L15.9999 23.2532L15 23.2592ZM15.7499 14C14.7834 14 13.9999 14.7835 13.9999 15.75H15.9999C15.9999 15.8881 15.888 16 15.7499 16V14ZM17.4999 15.75C17.4999 14.7835 16.7164 14 15.7499 14V16C15.6118 16 15.4999 15.8881 15.4999 15.75H17.4999ZM17.4999 20.5V15.75H15.4999V20.5H17.4999ZM16.4999 19.75V20.5H18.4999V19.75H16.4999ZM18.2499 18C17.2834 18 16.4999 18.7835 16.4999 19.75H18.4999C18.4999 19.8881 18.388 20 18.2499 20V18ZM19.9999 19.75C19.9999 18.7835 19.2164 18 18.2499 18V20C18.1118 20 17.9999 19.8881 17.9999 19.75H19.9999ZM19.9999 20.5V19.75H17.9999V20.5H19.9999ZM18.9999 20.25V20.5H20.9999V20.25H18.9999ZM20.7499 18.5C19.7834 18.5 18.9999 19.2835 18.9999 20.25H20.9999C20.9999 20.3881 20.888 20.5 20.7499 20.5V18.5ZM22.4999 20.25C22.4999 19.2835 21.7164 18.5 20.7499 18.5V20.5C20.6118 20.5 20.4999 20.3881 20.4999 20.25H22.4999ZM22.4999 20.5V20.25H20.4999V20.5H22.4999ZM22.25 20H21.9999V22H22.25V20ZM23.5 20.75C23.5 20.8881 23.388 21 23.25 21V19C22.2835 19 21.5 19.7835 21.5 20.75H23.5ZM23.25 21C23.1119 21 23 20.8881 23 20.75H25C25 19.7835 24.2165 19 23.25 19V21ZM23 20.75V23.25H25V20.75H23ZM23 23.25L23 23.2491L25 23.2568C25 23.2546 25 23.2523 25 23.25H23ZM25 24.5V23.253H23V24.5H25ZM19.5 30C22.5375 30 25 27.5376 25 24.5H23C23 26.433 21.433 28 19.5 28V30ZM14.9523 27.5942C15.9406 29.0444 17.6085 30 19.5 30V28C18.2978 28 17.2367 27.3948 16.6051 26.4679L14.9523 27.5942ZM12.3654 25.3601C13.3523 26.1398 14.3851 26.9604 15.0277 27.6913L16.5297 26.3708C15.7416 25.4742 14.5447 24.533 13.6054 23.7908L12.3654 25.3601ZM12.3776 25.3696L12.3777 25.3696L13.5931 23.7813L13.5931 23.7812L12.3776 25.3696ZM12.3644 25.3592L12.3646 25.3594L13.6061 23.7914L13.6059 23.7913L12.3644 25.3592ZM11.4965 24.6653C11.7628 24.8839 12.0612 25.1197 12.3652 25.3599L13.6051 23.7906C13.2974 23.5474 13.0146 23.324 12.7657 23.1196L11.4965 24.6653ZM11.2424 21.6422C10.4498 22.5432 10.5919 23.9226 11.4965 24.6653L12.7657 23.1196C12.7463 23.1037 12.7287 23.0756 12.7252 23.0361C12.7217 22.9977 12.7337 22.9749 12.744 22.9632L11.2424 21.6422ZM15.3577 22.6831C14.9846 22.2841 14.4136 21.7191 13.7899 21.3698C13.4767 21.1943 13.0659 21.0244 12.6054 21.0217C12.0952 21.0187 11.6112 21.223 11.2424 21.6422L12.744 22.9632C12.7464 22.9606 12.7281 22.9811 12.6865 22.9997C12.6451 23.0182 12.6096 23.0218 12.5935 23.0217C12.5791 23.0216 12.6463 23.0215 12.8126 23.1147C13.1479 23.3025 13.5417 23.6693 13.8968 24.0491L15.3577 22.6831ZM15.3841 22.7114C15.3752 22.7019 15.3664 22.6925 15.3577 22.6831L13.8968 24.0491C13.9043 24.0571 13.9119 24.0652 13.9194 24.0733L15.3841 22.7114ZM13.9999 23.256L14 23.2652L15.9999 23.2532L15.9999 23.244L13.9999 23.256ZM13.9999 15.75V23.25H15.9999V15.75H13.9999ZM13.9194 24.0733C14.6326 24.8403 16 24.3889 16 23.2592H14C14 22.4896 14.9161 22.2081 15.3841 22.7114L13.9194 24.0733ZM19.4999 22C20.3283 22 20.9999 21.3284 20.9999 20.5H18.9999C18.9999 20.2239 19.2238 20 19.4999 20V22ZM16.9999 22C17.8283 22 18.4999 21.3284 18.4999 20.5H16.4999C16.4999 20.2239 16.7238 20 16.9999 20V22ZM20.4999 20.5C20.4999 21.3284 21.1715 22 21.9999 22V20C22.2761 20 22.4999 20.2238 22.4999 20.5H20.4999ZM17.9999 20.5C17.9999 21.3284 18.6715 22 19.4999 22V20C19.7761 20 19.9999 20.2239 19.9999 20.5H17.9999ZM22.25 22C22.9403 22 23.5 21.4404 23.5 20.75H21.5C21.5 20.3358 21.8358 20 22.25 20V22ZM15.4999 20.5C15.4999 21.3284 16.1715 22 16.9999 22V20C17.2761 20 17.4999 20.2239 17.4999 20.5H15.4999Z" fill="black" mask="url(#path-1-outside-1_16_531)"/>
</g>
</g>
<defs>
<filter id="filter0_d_16_531" x="7.72437" y="12" width="20.2756" height="22" filterUnits="userSpaceOnUse" color-interpolation-filters="sRGB">
<feFlood flood-opacity="0" result="BackgroundImageFix"/>
<feColorMatrix in="SourceAlpha" type="matrix" values="0 0 0 0 0 0 0 0 0 0 0 0 0 0 0 0 0 0 127 0" result="hardAlpha"/>
<feOffset dy="1"/>
<feGaussianBlur stdDeviation="1.5"/>
<feColorMatrix type="matrix" values="0 0 0 0 0 0 0 0 0 0 0 0 0 0 0 0 0 0 0.35 0"/>
<feBlend mode="normal" in2="BackgroundImageFix" result="effect1_dropShadow_16_531"/>
<feBlend mode="normal" in="SourceGraphic" in2="effect1_dropShadow_16_531" result="shape"/>
</filter>
<clipPath id="clip0_16_531">
<rect width="32" height="32" fill="white"/>
</clipPath>
</defs>
</svg>
